<svg width="60" height="60" viewBox="0 0 60 60" fill="none" xmlns="http://www.w3.org/2000/svg">
<path fill-rule="evenodd" clip-rule="evenodd" d="M5.625 13.125C5.625 11.1359 6.41518 9.22822 7.8217 7.8217C9.22822 6.41518 11.1359 5.625 13.125 5.625H46.875C48.8641 5.625 50.7718 6.41518 52.1783 7.8217C53.5848 9.22822 54.375 11.1359 54.375 13.125V37.5C54.375 39.4891 53.5848 41.3968 52.1783 42.8033C50.7718 44.2098 48.8641 45 46.875 45H39.375V45.6425C39.375 47.135 39.9675 48.5675 41.0225 49.62L42.575 51.175C42.8369 51.4372 43.0152 51.7712 43.0874 52.1347C43.1596 52.4982 43.1225 52.8749 42.9807 53.2173C42.8389 53.5597 42.5989 53.8524 42.2908 54.0585C41.9828 54.2645 41.6206 54.3747 41.25 54.375H18.75C18.3794 54.3747 18.0172 54.2645 17.7092 54.0585C17.4011 53.8524 17.1611 53.5597 17.0193 53.2173C16.8775 52.8749 16.8404 52.4982 16.9126 52.1347C16.9848 51.7712 17.1631 51.4372 17.425 51.175L18.9775 49.62C20.0318 48.5657 20.6244 47.136 20.625 45.645V45H13.125C11.1359 45 9.22822 44.2098 7.8217 42.8033C6.41518 41.3968 5.625 39.4891 5.625 37.5V13.125ZM9.375 13.125V31.875C9.375 32.8696 9.77009 33.8234 10.4733 34.5267C11.1766 35.2299 12.1304 35.625 13.125 35.625H46.875C47.8696 35.625 48.8234 35.2299 49.5266 34.5267C50.2299 33.8234 50.625 32.8696 50.625 31.875V13.125C50.625 12.1304 50.2299 11.1766 49.5266 10.4733C48.8234 9.77009 47.8696 9.375 46.875 9.375H13.125C12.1304 9.375 11.1766 9.77009 10.4733 10.4733C9.77009 11.1766 9.375 12.1304 9.375 13.125Z" fill="#F3BD3D"/>
</svg>
